<?xml version="1.0" encoding="UTF-8"?>
<svg id="Layer_3" data-name="Layer 3" xmlns="http://www.w3.org/2000/svg" viewBox="0 0 138.11 138.11">
  <defs>
    <style>
      .cls-1 { fill: url(#linear-gradient); }
      .cls-2 { fill: #415426; } /* Updated to your brand green */
    </style>
    <linearGradient id="linear-gradient" x1="70.05" y1="33.6" x2="70.05" y2="111.67" gradientUnits="userSpaceOnUse">
      <stop offset="0" stop-color="#ffb500"/>
      <stop offset="1" stop-color="#ff8700"/>
    </linearGradient>
  </defs>
  <g id="Layer_1" data-name="Layer 1">
    <g>
      <circle class="cls-2" cx="69.055" cy="69.055" r="69.055"/>
      
      <path class="cls-1" d="M104.6,36.88c-9.07-5.85-21.34-5.39-33.56-.12,0,0,0,0,0,0,0,0,0,0,0,0,0,0,0,0,0,0-16.25-4.89-32.6-3.67-40.48,6.72-6.62,8.73-5.08,22.17,1.15,34.55,0,0,0,0,0,0-4.78,13.41-3.14,25.31,3.49,30.65,5.69,4.59,14.9,3.05,23.05-1.72-1.73-.71-3.48-1.53-5.08-2.41-.34.18-5.21,2.54-9.94,2.79-2.04.11-3.8-.48-5.12-1.53-3.22-2.56-4.59-9.88-1.57-19.74.86-2.82,2.07-5.84,3.71-9.01,3.31-6.46,8.35-13.55,15.59-20.85,2.6-2.62,7.64-7.02,13.74-10.98-2.48-1.3-5.41-2.47-8.15-3.31-4.08,2.62-8.05,5.76-11.78,9.35-5.87,5.65-10.4,11.61-13.7,17.51-3.48-8-4.89-15.85-2.65-21.81,4.13-10.94,16.83-10.96,30.19-6.34,0,0,0,0,0,0,2.7.93,5.42,2.06,8.11,3.32.75.35,0,0,0,0,9.88,4.64,19.26,11.13,24.89,16.93,0,0,1.32-2.77,2.39-4.99.8-1.66.36-3.65-1.06-4.84-5.45-4.54-11.77-8.35-18.36-11.21,0,0,0,0,0,0,0,0,0,0,0,0,0,0,0,0,0,0,7.83-3.38,16.14-4.73,22.86-.69,10.7,6.43,1.68,29.6-2.74,39.26-8.29,18.14-20.87,29.85-31.77,25.73-1.1-.41-2.23-.95-3.39-1.6,2.58-2.23,4.88-4.76,6.68-7.47,9.46-1.32,21.66-8.53,24.39-28.53-1.38,1.29-2.91,6.29-8.46,7.91-3.45,1.01-6.17,2.16-8.36,3.43.51-1.22.91-2.53,1.1-3.91.93-6.96-2.07-11.82-3.07-15.17-.89-2.98-.68-5.52-.84-7.41-.6,1.84-.7,3.72-2.59,7.13-1.65,2.98-6.19,6.81-6.67,14.12-.06.84-.05,1.65,0,2.43-1.6-1.39-3.58-2.79-6.02-4.17-3.99-2.26-3.09-8.13-3.69-10.04-7.06,17.75,4.28,29.14,9.37,32.85-1.77,2.28-3.81,4.35-5.99,6.15h0c-6.55-4.8-13.42-12.4-18.72-20.68,0,0,0,0,0-.01-1.37,2.83-2.56,6.2-3.33,9.2,4.72,6.15,10.55,11.5,16.91,15.11,1.6.91,3.23,1.71,4.89,2.38,0,0,0,0,0,0,1.06.43,2.12.81,3.19,1.14,12.1,3.65,30.3-.39,43.64-26.5,5.99-11.73,13.14-33.7-2.26-43.64ZM88.48,77.93c-2.6,6.63-7.96,10.19-15.22,12.41,3.16-9.39,8.14-8.93,15.22-12.41ZM74.56,63.29c2.33,7.76,2.59,12.66-2.02,17.49-2.59-4.98-3-10.61,2.02-17.49ZM58.22,73.76c4.74,3.84,10.96,6.4,10.48,16.02-4.58-2.9-8.84-7.87-10.48-16.02Z"/>
    </g>
  </g>
</svg>