<?xml version="1.0" encoding="UTF-8"?>
<svg id="Layer_2" data-name="Layer 2" xmlns="http://www.w3.org/2000/svg" xmlns:xlink="http://www.w3.org/1999/xlink" viewBox="0 -9.8 195.36 195.36">
  <defs>
    <style>
      .cls-1 {
        fill: url(#New_Gradient_Swatch_2);
      }
    </style>
    <linearGradient id="New_Gradient_Swatch_2" data-name="New Gradient Swatch 2" x1="97.68" y1="0" x2="97.68" y2="176.9" gradientUnits="userSpaceOnUse">
      <stop offset="0" stop-color="#fcb415"/>
      <stop offset="1" stop-color="#f6871f"/>
    </linearGradient>
  </defs>
  <g id="Layer_1" data-name="Layer 1">
    <path class="cls-1" d="M174.72,9.43c-20.23-13.05-47.6-12.01-74.85-.26,0,0,0,0,0,0,0,0,0,0,0,0,0,0,0,0,0,0C63.63-1.73,27.17.99,9.59,24.17c-14.77,19.47-11.34,49.44,2.57,77.07,0,0,0,0,0,0-10.66,29.91-7,56.44,7.77,68.37,12.68,10.25,33.23,6.8,51.42-3.83-3.85-1.59-7.75-3.42-11.34-5.38-.75.39-11.63,5.66-22.17,6.22-4.54.24-8.48-1.08-11.41-3.41-7.19-5.7-10.24-22.03-3.51-44.04,1.91-6.28,4.62-13.02,8.27-20.1,7.39-14.4,18.61-30.23,34.76-46.51,5.8-5.85,17.04-15.65,30.65-24.48-5.53-2.91-12.06-5.5-18.17-7.38-9.09,5.85-17.95,12.85-26.27,20.86-13.09,12.59-23.19,25.9-30.56,39.05-7.77-17.85-10.91-35.36-5.9-48.64C24.91,7.55,53.23,7.5,83.05,17.82c0,0,0,0,0,0,6.02,2.08,12.1,4.59,18.09,7.4,1.67.78,0,0,0,0,22.04,10.34,42.95,24.83,55.51,37.76,0,0,2.95-6.17,5.32-11.13,1.78-3.71.8-8.15-2.36-10.79-12.15-10.14-26.25-18.62-40.94-25,0,0,0,0,0,0,0,0,0,0,0,0,0,0,0,0,0,0,17.46-7.55,36-10.54,51-1.53,23.86,14.34,3.74,66.02-6.1,87.57-18.5,40.47-46.55,66.58-70.86,57.39-2.45-.93-4.98-2.13-7.57-3.57,5.76-4.97,10.88-10.62,14.9-16.66,21.11-2.95,48.32-19.02,54.41-63.64-3.08,2.87-6.49,14.02-18.87,17.65-7.69,2.25-13.77,4.82-18.64,7.65,1.15-2.71,2.03-5.63,2.44-8.72,2.06-15.52-4.62-26.36-6.85-33.83-1.99-6.64-1.51-12.32-1.87-16.53-1.34,4.11-1.56,8.31-5.77,15.91-3.68,6.65-13.8,15.18-14.87,31.5-.12,1.88-.12,3.68-.01,5.41-3.57-3.09-7.97-6.22-13.42-9.3-8.9-5.04-6.89-18.14-8.23-22.4-15.75,39.58,9.56,65,20.91,73.26-3.94,5.09-8.49,9.71-13.35,13.72h0c-14.61-10.72-29.93-27.65-41.76-46.12-.01-.01-.01-.02-.02-.03-3.07,6.31-5.7,13.82-7.42,20.53,10.53,13.73,23.52,25.65,37.71,33.69,3.56,2.03,7.21,3.82,10.91,5.32,0,0,0,0,0,0,2.35.96,4.73,1.81,7.12,2.53,26.99,8.13,67.59-.87,97.34-59.11,13.36-26.16,29.3-75.17-5.04-97.33ZM138.79,100.99c-5.79,14.79-17.76,22.72-33.94,27.67,7.05-20.94,18.16-19.92,33.94-27.67ZM107.73,68.32c5.2,17.31,5.77,28.24-4.5,39.02-5.78-11.1-6.7-23.66,4.5-39.02ZM71.28,91.7c10.57,8.56,24.44,14.28,23.37,35.74-10.21-6.47-19.72-17.56-23.37-35.74Z"/>
  </g>
</svg>